<svg width="80" height="89" viewBox="0 0 80 89" fill="none" xmlns="http://www.w3.org/2000/svg">
<path d="M39.8907 0.0020286C41.2846 0.0020286 42.6572 0.0967251 43.934 0.31954C45.1914 0.49207 46.4322 0.779103 47.642 1.17738C48.855 1.56174 50.0413 2.04079 51.2277 2.64239C52.3822 3.21614 53.5685 3.91801 54.7549 4.68115C56.7605 6.01804 58.7343 7.09869 60.7452 7.9621C64.7041 9.62115 68.8903 10.6084 73.1462 10.8866C75.3062 11.0481 77.5246 11.1428 79.8335 11.1428V33.4243C79.8335 37.6578 79.3175 41.6685 78.2854 45.4898C77.294 49.2565 75.8852 52.8889 74.0879 56.313C72.2981 59.7323 70.1804 62.9518 67.7677 65.9219C65.3179 68.9595 62.6654 71.8112 59.8302 74.4557C56.9575 77.108 53.9318 79.5729 50.7702 81.8365C47.6101 84.1315 44.4181 86.2649 41.2261 88.2034L39.9493 89L38.6725 88.2034C35.3911 86.2143 32.1859 84.0903 29.0645 81.8365C25.8852 79.5984 22.8579 77.1323 20.0045 74.4557C17.171 71.8112 14.5203 68.9594 12.0723 65.9219C9.66604 62.9393 7.5389 59.7215 5.72021 56.313C3.9536 52.8737 2.5463 49.245 1.52271 45.4898C0.484077 41.5612 -0.027998 37.5005 0.00117999 33.4243V11.1428C2.31539 11.1428 4.53384 11.0481 6.69377 10.8866C8.81998 10.7319 10.9324 10.4135 13.014 9.93402C15.0515 9.45496 17.0891 8.81994 19.0948 7.9621C21.176 7.08262 23.1713 5.99508 25.0532 4.71457C27.394 3.12144 29.7667 1.94609 32.1075 1.17181C34.6285 0.362608 37.2542 -0.0320148 39.8907 0.0020286ZM74.4816 16.6185C70.4544 16.4139 66.4648 15.7089 62.5966 14.5184C58.7489 13.3167 55.0839 11.548 51.7118 9.26557C49.9628 8.06346 48.0632 7.12055 46.0673 6.46367C44.0735 5.83274 42.0001 5.52099 39.9173 5.53899C37.8191 5.52478 35.7304 5.83639 33.7195 6.46367C31.7206 7.0992 29.8235 8.04358 28.0909 9.26557C24.713 11.5604 21.0386 13.3369 17.1795 14.5407C13.4076 15.6882 9.46019 16.3901 5.32121 16.6463V33.4522C5.32121 37.1453 5.77873 40.6769 6.69377 44.0805C7.62598 47.4544 8.91054 50.7104 10.5242 53.7896C12.1572 56.9009 14.0819 59.8342 16.2698 62.5463C18.4883 65.2813 20.8557 67.827 23.4093 70.2445C25.9629 72.6676 28.6389 74.8958 31.4372 76.9624C34.2621 79.0346 37.0924 80.9118 39.9173 82.6275C42.8099 80.8643 45.6303 78.9743 48.3709 76.9624C51.1877 74.9023 53.8778 72.6586 56.4254 70.2445C58.979 67.827 61.3517 65.2813 63.5702 62.5463C65.7584 59.8344 67.6831 56.901 69.3158 53.7896C70.9223 50.7143 72.1878 47.4567 73.0877 44.0805C74.0305 40.6247 74.4998 37.0462 74.4816 33.4522V16.6185Z" fill="#BB1D1E"/>
<path fill-rule="evenodd" clip-rule="evenodd" d="M63.5546 25.1409L61.2138 23.0353L59.0538 23.2303L35.8585 51.9066L27.9583 40.0974L25.8303 39.7186L23.3671 41.5624L23 43.7905L33.1559 58.9754L34.3104 59.6438L36.7416 59.7998L37.9865 59.2316L63.7088 27.3969L63.5546 25.1409Z" fill="#BB1D1E"/>
</svg>
